<?xml version="1.0" standalone="no"?>
<svg version="1.0" xmlns="http://www.w3.org/2000/svg"
 width="1200.000000pt" height="253.000000pt" viewBox="0 0 1200.000000 253.000000"
 preserveAspectRatio="xMidYMid meet">

<g transform="translate(0.000000,253.000000) scale(0.100000,-0.100000)"
fill="#ff5400" stroke="none">
<path d="M320 2385 l0 -145 1105 0 1105 0 0 145 0 145 -1105 0 -1105 0 0 -145z"/>
<path d="M3640 2519 c-225 -20 -348 -78 -407 -192 -22 -44 -26 -65 -26 -132 0
-94 16 -137 72 -194 78 -79 147 -101 454 -140 228 -30 275 -42 300 -82 16 -25
0 -67 -31 -83 -44 -22 -140 -30 -208 -16 -45 10 -66 20 -91 46 l-32 34 -241 0
-242 0 7 -37 c25 -138 134 -232 321 -280 102 -26 522 -26 643 0 136 29 208 63
273 127 69 70 93 136 86 239 -9 128 -77 206 -220 257 -22 7 -164 32 -316 55
-179 26 -288 47 -307 58 -40 23 -41 65 -2 95 24 18 42 21 125 21 110 0 164
-19 191 -67 l16 -28 234 0 233 0 -7 38 c-17 93 -78 166 -177 212 -81 38 -175
58 -331 70 -138 11 -183 11 -317 -1z"/>
<path d="M4700 2493 c-1 -6 0 -1007 0 -1035 0 -5 90 -8 200 -8 l200 0 1 143 0
142 91 72 90 72 142 -212 141 -212 252 -3 252 -2 -239 332 c-132 183 -239 336
-237 339 1 3 92 84 202 179 110 95 207 179 215 186 12 12 -27 14 -258 14
l-272 0 -188 -184 -187 -184 -3 184 -2 184 -200 0 c-110 0 -200 -3 -200 -7z"/>
<path d="M6130 1975 l0 -525 525 0 525 0 0 140 0 140 -325 0 -325 0 0 385 0
385 -200 0 -200 0 0 -525z"/>
<path d="M7696 2491 c-9 -15 -433 -995 -440 -1018 l-7 -23 214 0 213 0 15 48
15 47 231 3 231 2 17 -50 17 -50 217 0 218 0 -78 193 c-185 461 -332 823 -340
840 -9 15 -32 17 -264 17 -139 0 -256 -4 -259 -9z m322 -508 l60 -183 -128 0
c-71 0 -131 4 -134 9 -3 4 24 88 59 186 36 99 65 181 65 184 0 25 27 -43 78
-196z"/>
<path d="M8720 1975 l0 -526 443 4 c413 3 447 5 516 25 262 74 391 238 391
496 0 255 -141 430 -403 498 -76 20 -112 22 -514 25 l-433 4 0 -526z m684 265
c90 -11 146 -38 188 -90 66 -82 58 -280 -13 -357 -12 -12 -44 -32 -72 -44 -45
-20 -73 -23 -214 -27 l-163 -4 0 265 0 265 98 1 c53 1 132 -3 176 -9z"/>
<path d="M0 1935 l0 -145 630 0 630 0 0 145 0 145 -630 0 -630 0 0 -145z"/>
<path d="M0 1485 l0 -145 1105 0 1105 0 0 145 0 145 -1105 0 -1105 0 0 -145z"/>
<path d="M320 1045 l0 -145 1105 0 1105 0 0 145 0 145 -1105 0 -1105 0 0 -145z"/>
<path d="M3518 1091 c-215 -47 -311 -141 -312 -306 -1 -105 35 -177 118 -234
70 -49 152 -69 397 -101 283 -36 332 -56 315 -123 -11 -44 -57 -62 -166 -62
-104 0 -146 15 -176 60 l-16 25 -245 0 -245 0 6 -37 c32 -179 188 -276 487
-303 133 -12 374 0 489 24 246 53 361 174 348 365 -10 140 -97 228 -260 266
-35 7 -173 30 -307 49 -264 39 -304 51 -309 99 -12 99 321 97 353 -3 6 -19 16
-20 242 -20 l235 0 -7 37 c-23 124 -119 206 -300 254 -69 19 -113 22 -320 25
-207 3 -252 1 -327 -15z"/>
<path d="M9790 1104 c-235 -42 -378 -127 -452 -271 -20 -38 -41 -90 -47 -117
-17 -69 -15 -249 4 -320 48 -183 183 -303 403 -358 75 -19 114 -22 287 -22
154 0 215 4 267 17 216 54 347 156 404 313 41 113 59 104 -205 104 l-228 0
-17 -45 c-33 -86 -111 -130 -232 -129 -56 0 -81 5 -127 28 -95 46 -137 125
-137 256 0 178 85 277 246 288 133 8 229 -49 255 -153 l11 -45 229 0 229 0 0
24 c0 13 -8 51 -19 85 -52 167 -167 266 -376 322 -67 18 -112 22 -275 25 -107
1 -206 0 -220 -2z"/>
<path d="M4690 565 l0 -525 575 0 575 0 0 130 0 130 -370 0 -370 0 0 75 0 75
285 0 285 0 0 125 0 125 -285 0 -285 0 0 68 0 67 355 -2 355 -3 0 130 0 130
-560 0 -560 0 0 -525z"/>
<path d="M5980 576 c0 -283 2 -520 5 -528 4 -10 46 -12 205 -10 l199 3 3 157
3 157 155 0 c164 0 205 -8 229 -47 7 -11 16 -71 21 -133 4 -62 10 -118 14
-124 5 -8 77 -11 233 -11 222 0 226 0 209 19 -19 21 -31 87 -45 258 -10 127
-27 167 -86 199 -36 19 -45 34 -21 34 7 0 33 18 58 40 93 81 121 228 65 342
-70 144 -145 158 -819 158 l-428 0 0 -514z m786 231 c36 -18 44 -34 44 -83 0
-42 -34 -78 -81 -88 -18 -3 -101 -6 -185 -6 l-154 0 0 93 c0 52 3 97 8 101 4
5 81 6 172 4 127 -3 172 -8 196 -21z"/>
<path d="M7274 1058 c7 -18 92 -211 188 -428 97 -217 194 -439 218 -493 l43
-97 214 0 214 0 34 72 c363 790 445 970 445 974 0 2 -100 4 -223 4 l-223 0
-119 -355 c-65 -195 -122 -352 -125 -348 -4 5 -56 164 -116 355 l-109 348
-228 0 -227 0 14 -32z"/>
<path d="M8690 565 l0 -525 205 0 205 0 0 525 0 525 -205 0 -205 0 0 -525z"/>
<path d="M10850 565 l0 -525 575 0 575 0 0 130 0 130 -375 0 -375 0 0 75 0 75
290 0 291 0 -3 123 -3 122 -287 3 -288 2 0 68 0 67 352 0 353 0 3 128 3 127
-556 0 -555 0 0 -525z"/>
<path d="M1270 595 l0 -145 630 0 630 0 0 145 0 145 -630 0 -630 0 0 -145z"/>
<path d="M0 145 l0 -145 1105 0 1105 0 0 145 0 145 -1105 0 -1105 0 0 -145z"/>
</g>
</svg>
