<svg width="148" height="34" viewBox="0 0 148 34" fill="none" xmlns="http://www.w3.org/2000/svg">
<path d="M47.04 24.7395C46.9067 24.7395 46.7933 24.6928 46.7 24.5995C46.6067 24.5062 46.56 24.3928 46.56 24.2595V11.2195C46.56 11.0728 46.6067 10.9595 46.7 10.8795C46.7933 10.7862 46.9067 10.7395 47.04 10.7395H48.9C49.0467 10.7395 49.16 10.7862 49.24 10.8795C49.3333 10.9595 49.38 11.0728 49.38 11.2195V22.3595H55.72C55.8667 22.3595 55.9867 22.4062 56.08 22.4995C56.1733 22.5928 56.22 22.7128 56.22 22.8595V24.2595C56.22 24.4062 56.1733 24.5262 56.08 24.6195C55.9867 24.6995 55.8667 24.7395 55.72 24.7395H47.04ZM62.3653 24.9395C60.8053 24.9395 59.5986 24.5395 58.7453 23.7395C57.892 22.9262 57.432 21.8195 57.3653 20.4195L57.3453 19.5395L57.3653 18.6595C57.432 17.2728 57.8986 16.1728 58.7653 15.3595C59.632 14.5462 60.832 14.1395 62.3653 14.1395C63.8986 14.1395 65.0986 14.5462 65.9653 15.3595C66.832 16.1728 67.2986 17.2728 67.3653 18.6595C67.3786 18.8195 67.3853 19.1128 67.3853 19.5395C67.3853 19.9662 67.3786 20.2595 67.3653 20.4195C67.2986 21.8195 66.8386 22.9262 65.9853 23.7395C65.132 24.5395 63.9253 24.9395 62.3653 24.9395ZM62.3653 22.9595C63.072 22.9595 63.6186 22.7395 64.0053 22.2995C64.392 21.8462 64.6053 21.1862 64.6453 20.3195C64.6586 20.1862 64.6653 19.9262 64.6653 19.5395C64.6653 19.1528 64.6586 18.8928 64.6453 18.7595C64.6053 17.8928 64.392 17.2395 64.0053 16.7995C63.6186 16.3462 63.072 16.1195 62.3653 16.1195C61.6586 16.1195 61.112 16.3462 60.7253 16.7995C60.3386 17.2395 60.1253 17.8928 60.0853 18.7595L60.0653 19.5395L60.0853 20.3195C60.1253 21.1862 60.3386 21.8462 60.7253 22.2995C61.112 22.7395 61.6586 22.9595 62.3653 22.9595ZM70.0813 24.7395C69.9479 24.7395 69.8346 24.6928 69.7413 24.5995C69.6479 24.5062 69.6012 24.3928 69.6012 24.2595V14.8395C69.6012 14.7062 69.6479 14.5928 69.7413 14.4995C69.8346 14.3928 69.9479 14.3395 70.0813 14.3395H71.7013C71.8479 14.3395 71.9679 14.3862 72.0613 14.4795C72.1546 14.5728 72.2013 14.6928 72.2013 14.8395V15.6595C72.5213 15.2328 72.9213 14.9062 73.4013 14.6795C73.8946 14.4528 74.4546 14.3395 75.0813 14.3395H75.9013C76.0479 14.3395 76.1613 14.3862 76.2413 14.4795C76.3346 14.5595 76.3813 14.6728 76.3813 14.8195V16.2595C76.3813 16.3928 76.3346 16.5062 76.2413 16.5995C76.1613 16.6928 76.0479 16.7395 75.9013 16.7395H74.3413C73.7146 16.7395 73.2213 16.9195 72.8613 17.2795C72.5013 17.6395 72.3213 18.1328 72.3213 18.7595V24.2595C72.3213 24.3928 72.2746 24.5062 72.1813 24.5995C72.0879 24.6928 71.9679 24.7395 71.8213 24.7395H70.0813ZM82.2844 24.9395C80.8044 24.9395 79.6244 24.5128 78.7444 23.6595C77.8777 22.7928 77.4177 21.5795 77.3644 20.0195L77.3444 19.5195L77.3644 19.0195C77.431 17.4995 77.8977 16.3062 78.7644 15.4395C79.6444 14.5728 80.8177 14.1395 82.2844 14.1395C83.8577 14.1395 85.071 14.6195 85.9244 15.5795C86.791 16.5395 87.2244 17.8195 87.2244 19.4195V19.8395C87.2244 19.9728 87.1777 20.0862 87.0844 20.1795C86.991 20.2728 86.871 20.3195 86.7244 20.3195H80.0844V20.4795C80.111 21.2128 80.311 21.8328 80.6844 22.3395C81.071 22.8328 81.5977 23.0795 82.2644 23.0795C83.051 23.0795 83.6844 22.7728 84.1644 22.1595C84.2844 22.0128 84.3777 21.9195 84.4444 21.8795C84.5244 21.8395 84.6377 21.8195 84.7844 21.8195H86.5044C86.6244 21.8195 86.7244 21.8595 86.8044 21.9395C86.8977 22.0062 86.9444 22.0928 86.9444 22.1995C86.9444 22.5195 86.751 22.8995 86.3644 23.3395C85.991 23.7662 85.451 24.1395 84.7444 24.4595C84.0377 24.7795 83.2177 24.9395 82.2844 24.9395ZM84.5044 18.6395V18.5795C84.5044 17.7928 84.3044 17.1595 83.9044 16.6795C83.5177 16.1995 82.9777 15.9595 82.2844 15.9595C81.591 15.9595 81.051 16.1995 80.6644 16.6795C80.2777 17.1595 80.0844 17.7928 80.0844 18.5795V18.6395H84.5044ZM89.8273 24.7395C89.694 24.7395 89.5807 24.6928 89.4873 24.5995C89.394 24.5062 89.3473 24.3928 89.3473 24.2595V14.8195C89.3473 14.6862 89.394 14.5728 89.4873 14.4795C89.5807 14.3862 89.694 14.3395 89.8273 14.3395H91.3873C91.5207 14.3395 91.634 14.3862 91.7273 14.4795C91.8207 14.5728 91.8673 14.6862 91.8673 14.8195V15.4995C92.5607 14.5928 93.5273 14.1395 94.7673 14.1395C96.2473 14.1395 97.2807 14.7328 97.8673 15.9195C98.1873 15.3862 98.6407 14.9595 99.2273 14.6395C99.814 14.3062 100.447 14.1395 101.127 14.1395C102.221 14.1395 103.114 14.5128 103.807 15.2595C104.501 16.0062 104.847 17.0928 104.847 18.5195V24.2595C104.847 24.3928 104.801 24.5062 104.707 24.5995C104.627 24.6928 104.514 24.7395 104.367 24.7395H102.727C102.594 24.7395 102.481 24.6928 102.387 24.5995C102.294 24.5062 102.247 24.3928 102.247 24.2595V18.6795C102.247 17.8395 102.067 17.2328 101.707 16.8595C101.361 16.4728 100.894 16.2795 100.307 16.2795C99.7873 16.2795 99.3407 16.4728 98.9673 16.8595C98.6073 17.2462 98.4273 17.8528 98.4273 18.6795V24.2595C98.4273 24.3928 98.3807 24.5062 98.2873 24.5995C98.194 24.6928 98.0807 24.7395 97.9473 24.7395H96.3073C96.174 24.7395 96.0607 24.6928 95.9673 24.5995C95.874 24.5062 95.8273 24.3928 95.8273 24.2595V18.6795C95.8273 17.8395 95.6407 17.2328 95.2673 16.8595C94.9073 16.4728 94.4473 16.2795 93.8873 16.2795C93.354 16.2795 92.9007 16.4728 92.5273 16.8595C92.1673 17.2462 91.9873 17.8528 91.9873 18.6795V24.2595C91.9873 24.3928 91.9407 24.5062 91.8473 24.5995C91.754 24.6928 91.6407 24.7395 91.5073 24.7395H89.8273ZM111.474 24.7395C111.048 24.7395 110.774 24.5395 110.654 24.1395L106.574 11.3395L106.534 11.1595C106.534 11.0528 106.574 10.9595 106.654 10.8795C106.748 10.7862 106.854 10.7395 106.974 10.7395H109.454C109.641 10.7395 109.794 10.7928 109.914 10.8995C110.048 11.0062 110.134 11.1262 110.174 11.2595L113.014 20.4995L115.834 11.2595C115.874 11.1262 115.954 11.0062 116.074 10.8995C116.208 10.7928 116.368 10.7395 116.554 10.7395H119.054C119.161 10.7395 119.254 10.7862 119.334 10.8795C119.428 10.9595 119.474 11.0528 119.474 11.1595L119.434 11.3395L115.354 24.1395C115.234 24.5395 114.961 24.7395 114.534 24.7395H111.474ZM121.841 24.7395C121.708 24.7395 121.588 24.6928 121.481 24.5995C121.388 24.4928 121.341 24.3728 121.341 24.2395V11.2395C121.341 11.0928 121.388 10.9728 121.481 10.8795C121.588 10.7862 121.708 10.7395 121.841 10.7395H127.441C129.148 10.7395 130.488 11.1328 131.461 11.9195C132.448 12.7062 132.941 13.8528 132.941 15.3595C132.941 16.8528 132.455 17.9795 131.481 18.7395C130.508 19.4862 129.161 19.8595 127.441 19.8595H125.061V24.2395C125.061 24.3862 125.008 24.5062 124.901 24.5995C124.808 24.6928 124.688 24.7395 124.541 24.7395H121.841ZM127.341 17.0995C127.928 17.0995 128.388 16.9528 128.721 16.6595C129.055 16.3528 129.221 15.9062 129.221 15.3195C129.221 14.7728 129.061 14.3395 128.741 14.0195C128.435 13.6862 127.968 13.5195 127.341 13.5195H125.001V17.0995H127.341ZM135.357 24.7395C135.224 24.7395 135.104 24.6928 134.997 24.5995C134.904 24.4928 134.857 24.3728 134.857 24.2395V11.2395C134.857 11.0928 134.904 10.9728 134.997 10.8795C135.104 10.7862 135.224 10.7395 135.357 10.7395H137.477C137.81 10.7395 138.037 10.8662 138.157 11.1195L143.037 18.7995V11.2395C143.037 11.0928 143.084 10.9728 143.177 10.8795C143.284 10.7862 143.404 10.7395 143.537 10.7395H145.937C146.084 10.7395 146.204 10.7862 146.297 10.8795C146.39 10.9728 146.437 11.0928 146.437 11.2395V24.2195C146.437 24.3662 146.39 24.4928 146.297 24.5995C146.204 24.6928 146.084 24.7395 145.937 24.7395H143.797C143.504 24.7395 143.284 24.6128 143.137 24.3595L138.257 16.9595V24.2395C138.257 24.3728 138.21 24.4928 138.117 24.5995C138.024 24.6928 137.904 24.7395 137.757 24.7395H135.357Z" fill="#0B132A"/>
<path d="M31.1473 12.8069L31.1255 12.7864C31.1238 12.7853 31.1224 12.7838 31.1215 12.782L17.5006 0L3.87983 12.7817C3.87826 12.7832 3.8758 12.7861 3.8758 12.7861L3.85333 12.8065C1.77053 14.772 0.447586 17.3344 0.0948177 20.0864C-0.25795 22.8384 0.379698 25.6221 1.90639 27.9951C3.43309 30.368 5.76122 32.194 8.52069 33.1826C11.2802 34.1711 14.3126 34.2659 17.136 33.4514C17.3735 33.3832 17.6275 33.3832 17.8651 33.4514C20.6882 34.2655 23.7205 34.1708 26.4798 33.1821C29.2391 32.1933 31.567 30.3675 33.0936 27.9947C34.6202 25.622 35.2579 22.8384 34.9053 20.0866C34.5526 17.3347 33.2299 14.7723 31.1473 12.8069ZM8.7232 21.2356C8.65689 21.2978 8.6043 21.3717 8.56844 21.4529C8.53257 21.5341 8.5141 21.6213 8.51412 21.7092C8.53835 23.9651 9.21776 26.172 10.4792 28.0926C10.5079 28.1362 10.5211 28.1872 10.517 28.2382C10.513 28.2892 10.4918 28.3377 10.4566 28.3768C10.4213 28.4159 10.3738 28.4435 10.3209 28.4557C10.2679 28.4679 10.2122 28.4641 10.1616 28.4448C9.21332 28.0705 8.35182 27.5263 7.62531 26.8429C6.13646 25.4455 5.29946 23.5507 5.2981 21.5747C5.29675 19.5987 6.13117 17.7029 7.61812 16.3038L17.5006 7.03109L27.3826 16.3038C28.8698 17.7027 29.7045 19.5985 29.703 21.5747C29.7018 23.5507 28.8647 25.4455 27.3757 26.8429C26.6492 27.5263 25.7877 28.0705 24.8396 28.4448C24.7889 28.4641 24.7332 28.4679 24.6802 28.4557C24.6273 28.4435 24.5798 28.4157 24.5445 28.3768C24.5093 28.3377 24.488 28.2892 24.484 28.238C24.4799 28.187 24.4931 28.136 24.5218 28.0924C25.7835 26.172 26.4633 23.9651 26.4879 21.7092C26.4879 21.6213 26.4692 21.5341 26.4332 21.4527C26.3971 21.3714 26.3444 21.2976 26.2779 21.2354L21.6037 16.5829C21.5571 16.5465 21.4985 16.5265 21.4378 16.5265C21.3773 16.5265 21.3186 16.5465 21.2721 16.5829C21.2255 16.6193 21.1942 16.6699 21.1833 16.7259C21.1724 16.7818 21.1828 16.8394 21.2127 16.8889C23.0281 19.9717 21.467 24.3997 18.8637 26.8429L18.85 26.8558C18.4907 27.1893 18.0056 27.3763 17.5002 27.3762C16.9948 27.376 16.5098 27.1887 16.1508 26.855L16.1382 26.8429C13.5339 24.3997 11.9736 19.9722 13.7893 16.8896C13.8192 16.8401 13.8296 16.7825 13.8187 16.7265C13.8079 16.6706 13.7764 16.6199 13.7299 16.5836C13.6834 16.5471 13.6247 16.5272 13.5642 16.5272C13.5036 16.5272 13.4449 16.5471 13.3984 16.5836L8.7232 21.2356Z" fill="#F53838"/>
</svg>
